<svg xmlns="http://www.w3.org/2000/svg" xmlns:svg="http://www.w3.org/2000/svg" xmlns:xlink="http://www.w3.org/1999/xlink" id="svg44" width="511.985" height="511.985" version="1.1" viewBox="0 0 511.985 511.985"><defs id="defs18"><linearGradient id="linearGradient4633" x1=".465" x2=".557" y1="-.674" y2=".811" gradientTransform="matrix(231.62575,0,0,231.62472,111.11013,159.99363)" gradientUnits="userSpaceOnUse" xlink:href="#linearGradient4975"/><linearGradient id="linearGradient4975"><stop style="stop-color:#1972e7" id="stop4971" offset="0"/><stop style="stop-color:#1969d5" id="stop4973" offset="1"/></linearGradient><linearGradient id="linearGradient1331" x1="101.744" x2="101.599" y1="33.726" y2="135.466" gradientTransform="matrix(3.7794235,0,0,3.7794067,0.00151555,0.00377865)" gradientUnits="userSpaceOnUse" xlink:href="#3"/><linearGradient id="3" x2="1" gradientTransform="matrix(61.286,0,0,61.286,29.399,42.333)" gradientUnits="userSpaceOnUse"><stop id="stop1397" offset="0" style="stop-color:#afccfb"/><stop id="stop1399" offset="1" style="stop-color:#8bb5f8"/></linearGradient><linearGradient id="linearGradient2962" x1=".018" x2="1.77" y1="-.512" y2=".499" gradientTransform="matrix(94.931559,164.42687,-164.4276,94.931137,97.555991,173.61083)" gradientUnits="userSpaceOnUse" xlink:href="#1"/><linearGradient id="1" x2="1" gradientTransform="matrix(25.118,43.506,-43.506,25.118,25.812,45.935)" gradientUnits="userSpaceOnUse"><stop id="stop3122" offset="0" style="stop-color:#659cf6"/><stop id="stop3124" offset="1" style="stop-color:#4285f4"/></linearGradient><linearGradient id="linearGradient2688" x1="67.452" x2="67.733" y1="40.321" y2="95.25" gradientTransform="matrix(3.7794235,0,0,3.7794067,0.00150043,0.00377865)" gradientUnits="userSpaceOnUse" xlink:href="#2"/><linearGradient id="2"><stop style="stop-color:#3680f0" id="stop2682" offset="0"/><stop style="stop-color:#2678ec" id="stop2684" offset="1"/></linearGradient></defs><path id="path34-4" d="m 255.99319,255.99433 110.85049,63.99671 -110.85049,191.99385 c 141.38068,0 255.9917,-114.61051 255.9917,-255.99056 0,-46.64165 -12.53559,-90.3316 -34.33115,-127.99716 h -221.6632 z" style="fill:url(#linearGradient1331)"/><path id="path36-1" d="M 255.99054,0 C 161.2404,0 78.576848,51.513314 34.31224,128.0274 l 110.82781,191.96363 110.85049,-63.9967 V 127.99717 h 221.6632 C 433.38157,51.501975 350.72936,0 255.99054,0 Z" style="fill:url(#linearGradient4633)"/><path id="path38-7" d="m 0.00151177,255.99433 c 0,141.38005 114.60723823,255.99056 255.99168823,255.99056 L 366.84368,319.99103 255.9932,255.99433 145.14271,319.99103 34.314897,128.0274 C 12.531434,165.68239 0,209.35646 0,255.99056" style="fill:url(#linearGradient2962)"/><path id="path40" fill="#fff" d="m 383.99094,255.99433 c 0,70.69003 -57.30741,127.99717 -127.99775,127.99717 -70.69034,0 -127.99773,-57.30714 -127.99773,-127.99717 0,-70.69002 57.30739,-127.99716 127.99773,-127.99716 70.69034,0 127.99775,57.30714 127.99775,127.99716"/><path id="path42-5" d="m 359.99158,255.99433 c 0,57.43565 -46.56249,103.99794 -103.99839,103.99794 -57.4359,0 -103.9984,-46.56229 -103.9984,-103.99794 0,-57.43564 46.5625,-103.99793 103.9984,-103.99793 57.4359,0 103.99839,46.56229 103.99839,103.99793" style="fill:url(#linearGradient2688)"/></svg>